<?xml version="1.0" encoding="utf-8"?>
<!-- Generator: Adobe Illustrator 25.2.3, SVG Export Plug-In . SVG Version: 6.00 Build 0)  -->
<svg version="1.1" id="Layer_1" xmlns="http://www.w3.org/2000/svg" xmlns:xlink="http://www.w3.org/1999/xlink" x="0px" y="0px"
	 viewBox="0 0 91 91" style="enable-background:new 0 0 91 91;" xml:space="preserve">
<style type="text/css">
	.st0{fill:#FFFFFF;}
</style>
<g>
	<path class="st0" d="M27.9,55.7c5.5,5.5,12.9,8.6,20.7,8.6s15.1-3,20.7-8.6c11.4-11.4,11.4-29.9,0-41.3c-5.5-5.5-12.9-8.6-20.7-8.6
		s-15.1,3-20.7,8.6C16.5,25.8,16.5,44.3,27.9,55.7z M31.5,17.9c3,0.6,6.1,1.8,9.2,3.3c-1,1.1-2,2.3-3.1,3.3
		c-1.1,1.1-2.3,2.2-3.5,3.2c-1.6-3.1-2.7-6.1-3.3-9.1C31,18.4,31.2,18.2,31.5,17.9C31.5,17.9,31.5,17.9,31.5,17.9z M65.6,52.1
		c-0.2,0.2-0.5,0.4-0.7,0.7c-3-0.6-6-1.7-9-3.2c1-1.2,2.1-2.4,3.2-3.5c1.1-1.1,2.2-2.1,3.3-3C63.9,46.1,65,49.1,65.6,52.1
		C65.6,52.1,65.6,52.1,65.6,52.1z M45.1,23.9c2.1,1.4,4.2,3,6.2,4.8l-9.7,9.7c-1.8-2-3.4-4-4.9-6.2c1.6-1.3,3.1-2.6,4.5-4.1
		C42.6,26.8,43.9,25.3,45.1,23.9z M51.5,47c-2.2-1.4-4.3-3.1-6.3-5l9.7-9.7c1.8,2,3.5,4.1,4.9,6.3c-1.5,1.2-2.9,2.5-4.3,3.9
		C54.1,43.9,52.7,45.4,51.5,47z M41.5,45.6c2.2,2,4.5,3.8,6.9,5.4c-1.7,2.5-3.1,5.1-4.3,7.7c-4-0.7-7.7-2.4-10.8-5L41.5,45.6z
		 M52.8,53.7c2.2,1.2,4.4,2.1,6.7,2.9c-3,1.5-6.4,2.4-9.9,2.6C50.5,57.3,51.6,55.5,52.8,53.7z M66.5,39.9c2-1.4,4.1-2.6,6.1-3.6
		c-0.2,3.7-1.2,7.3-3.1,10.6C68.8,44.6,67.8,42.2,66.5,39.9z M63.9,35.6c-1.6-2.4-3.4-4.7-5.4-6.9l8.8-8.8c2.7,3.3,4.3,7.1,5,11.1
		C69.5,32.1,66.6,33.7,63.9,35.6z M54.9,25.1c-2.1-2-4.4-3.8-6.7-5.3c1.9-2.8,3.4-5.6,4.7-8.5c4,0.7,7.7,2.4,10.9,5L54.9,25.1z
		 M43.8,17.2c-2.4-1.3-4.8-2.3-7.2-3.1c3.3-1.9,7-3,10.8-3.1C46.4,13,45.2,15.1,43.8,17.2z M30,30.9c-1.8,1.2-3.7,2.3-5.6,3.2
		c0.1-3.5,1-6.9,2.6-10.1C27.8,26.4,28.8,28.7,30,30.9z M24.8,39.6c2.6-1.2,5.3-2.6,7.8-4.3c1.6,2.3,3.4,4.6,5.3,6.7l-8.2,8.2
		C27.2,47.1,25.6,43.4,24.8,39.6z"/>
	<path class="st0" d="M73.5,63.7l3.9,3.9L81,64l-7.4-7.4l-1.8,1.8C65.5,64.6,57.3,68,48.5,68s-17-3.4-23.3-9.6
		c-12.8-12.8-12.8-33.7,0-46.5l1.8-1.8l-7.4-7.4l-3.6,3.6l3.8,3.8C6.9,25.1,7.5,47.8,21.7,62c6,6,13.6,9.7,21.9,10.8V84H32.4v5.1
		h27.4V84H48.7V73.1C57.9,73.1,66.6,69.8,73.5,63.7z"/>
</g>
</svg>
